<svg width="567" height="623" viewBox="0 0 567 623" fill="none" xmlns="http://www.w3.org/2000/svg">
<rect y="22.2842" width="567" height="600" rx="46" fill="#08080E"/>
<path d="M156.984 10.0621L398.836 1.61643C416.223 1.00929 430.809 14.6115 431.416 31.9979L441.398 317.824C442.005 335.21 428.403 349.797 411.016 350.404L169.164 358.85C151.777 359.457 137.191 345.854 136.584 328.468L126.602 42.6423C126.005 25.5277 139.176 11.1265 156.171 10.1012L156.984 10.0621Z" fill="#FBFBFB"/>
<path d="M156.984 10.0621L398.836 1.61643C416.223 1.00929 430.809 14.6115 431.416 31.9979L441.398 317.824C442.005 335.21 428.403 349.797 411.016 350.404L169.164 358.85C151.777 359.457 137.191 345.854 136.584 328.468L126.602 42.6423C126.005 25.5277 139.176 11.1265 156.171 10.1012L156.984 10.0621Z" stroke="#D9DBE1"/>
<path d="M294.168 65.3387L534.364 94.8311C551.632 96.9513 563.911 112.668 561.791 129.935L526.936 413.803C524.816 431.071 509.099 443.35 491.832 441.23L251.636 411.737C234.368 409.617 222.089 393.901 224.209 376.633L259.064 92.765C261.151 75.7677 276.413 63.6042 293.359 65.2502L294.168 65.3387Z" fill="#FBFBFB"/>
<path d="M294.168 65.3387L534.364 94.8311C551.632 96.9513 563.911 112.668 561.791 129.935L526.936 413.803C524.816 431.071 509.099 443.35 491.832 441.23L251.636 411.737C234.368 409.617 222.089 393.901 224.209 376.633L259.064 92.765C261.151 75.7677 276.413 63.6042 293.359 65.2502L294.168 65.3387Z" stroke="#D9DBE1"/>
<path d="M41.1222 89.7885L282.533 72.9075C299.887 71.6939 314.94 84.7788 316.153 102.133L336.104 387.437C337.317 404.791 324.232 419.844 306.878 421.057L65.4673 437.938C48.1127 439.152 33.0602 426.067 31.8467 408.712L11.8963 123.409C10.7017 106.326 23.3621 91.4738 40.3115 89.856L41.1222 89.7885Z" fill="#FBFBFB"/>
<path d="M41.1222 89.7885L282.533 72.9075C299.887 71.6939 314.94 84.7788 316.153 102.133L336.104 387.437C337.317 404.791 324.232 419.844 306.878 421.057L65.4673 437.938C48.1127 439.152 33.0602 426.067 31.8467 408.712L11.8963 123.409C10.7017 106.326 23.3621 91.4738 40.3115 89.856L41.1222 89.7885Z" stroke="#D9DBE1"/>
<path d="M13 573.284V271.284C13 251.402 29.1178 235.284 49 235.284H215.742C225.284 235.284 234.435 239.072 241.186 245.817L264.459 269.069C271.21 275.813 280.361 279.601 289.903 279.601H518C537.882 279.601 554 295.719 554 315.601V573.284C554 593.166 537.882 609.284 518 609.284H49C29.1178 609.284 13 593.166 13 573.284Z" fill="#1D1D28"/>
</svg>
